<mxfile host="app.diagrams.net" modified="2023-11-06T03:48:26.125Z" agent="Mozilla/5.0 (Windows NT 10.0; Win64; x64) AppleWebKit/537.36 (KHTML, like Gecko) Chrome/118.0.0.0 Safari/537.36" etag="SVPHVdb-gKvu7H_WgOcz" version="22.0.8" type="github">
  <diagram id="C5RBs43oDa-KdzZeNtuy" name="Page-1">
    <mxGraphModel dx="1170" dy="1088" grid="0" gridSize="10" guides="1" tooltips="1" connect="1" arrows="1" fold="1" page="0" pageScale="1" pageWidth="827" pageHeight="1169" math="0" shadow="0">
      <root>
        <mxCell id="WIyWlLk6GJQsqaUBKTNV-0" />
        <mxCell id="WIyWlLk6GJQsqaUBKTNV-1" parent="WIyWlLk6GJQsqaUBKTNV-0" />
        <mxCell id="zkfFHV4jXpPFQw0GAbJ--0" value="User" style="swimlane;fontStyle=3;align=center;verticalAlign=top;childLayout=stackLayout;horizontal=1;startSize=26;horizontalStack=0;resizeParent=1;resizeLast=0;collapsible=1;marginBottom=0;rounded=0;shadow=0;strokeWidth=1;fontSize=11;labelBackgroundColor=none;fillColor=#FAE5C7;strokeColor=#0F8B8D;fontColor=#143642;" parent="WIyWlLk6GJQsqaUBKTNV-1" vertex="1">
          <mxGeometry x="101" y="64" width="160" height="314" as="geometry">
            <mxRectangle x="280" y="110" width="160" height="26" as="alternateBounds" />
          </mxGeometry>
        </mxCell>
        <mxCell id="zkfFHV4jXpPFQw0GAbJ--1" value="+ id: Long" style="text;align=left;verticalAlign=top;spacingLeft=4;spacingRight=4;overflow=hidden;rotatable=0;points=[[0,0.5],[1,0.5]];portConstraint=eastwest;fontSize=11;rounded=0;labelBackgroundColor=none;fontColor=#143642;" parent="zkfFHV4jXpPFQw0GAbJ--0" vertex="1">
          <mxGeometry y="26" width="160" height="26" as="geometry" />
        </mxCell>
        <mxCell id="zkfFHV4jXpPFQw0GAbJ--2" value="+ username: String" style="text;align=left;verticalAlign=top;spacingLeft=4;spacingRight=4;overflow=hidden;rotatable=0;points=[[0,0.5],[1,0.5]];portConstraint=eastwest;rounded=0;shadow=0;html=0;fontSize=11;labelBackgroundColor=none;fontColor=#143642;" parent="zkfFHV4jXpPFQw0GAbJ--0" vertex="1">
          <mxGeometry y="52" width="160" height="26" as="geometry" />
        </mxCell>
        <mxCell id="zkfFHV4jXpPFQw0GAbJ--3" value="+ phone: String" style="text;align=left;verticalAlign=top;spacingLeft=4;spacingRight=4;overflow=hidden;rotatable=0;points=[[0,0.5],[1,0.5]];portConstraint=eastwest;rounded=0;shadow=0;html=0;fontSize=11;labelBackgroundColor=none;fontColor=#143642;" parent="zkfFHV4jXpPFQw0GAbJ--0" vertex="1">
          <mxGeometry y="78" width="160" height="26" as="geometry" />
        </mxCell>
        <mxCell id="CQEFL2mhmP3pLworNLFp-5" value="+ password: String" style="text;strokeColor=none;fillColor=none;align=left;verticalAlign=middle;spacingLeft=4;spacingRight=4;overflow=hidden;points=[[0,0.5],[1,0.5]];portConstraint=eastwest;rotatable=0;whiteSpace=wrap;html=1;fontSize=11;rounded=0;labelBackgroundColor=none;fontColor=#143642;" parent="zkfFHV4jXpPFQw0GAbJ--0" vertex="1">
          <mxGeometry y="104" width="160" height="30" as="geometry" />
        </mxCell>
        <mxCell id="CQEFL2mhmP3pLworNLFp-17" value="+ avater: String" style="text;strokeColor=none;fillColor=none;align=left;verticalAlign=middle;spacingLeft=4;spacingRight=4;overflow=hidden;points=[[0,0.5],[1,0.5]];portConstraint=eastwest;rotatable=0;whiteSpace=wrap;html=1;fontSize=11;rounded=0;labelBackgroundColor=none;fontColor=#143642;" parent="zkfFHV4jXpPFQw0GAbJ--0" vertex="1">
          <mxGeometry y="134" width="160" height="30" as="geometry" />
        </mxCell>
        <mxCell id="CQEFL2mhmP3pLworNLFp-18" value="+ email: String" style="text;strokeColor=none;fillColor=none;align=left;verticalAlign=middle;spacingLeft=4;spacingRight=4;overflow=hidden;points=[[0,0.5],[1,0.5]];portConstraint=eastwest;rotatable=0;whiteSpace=wrap;html=1;fontSize=11;rounded=0;labelBackgroundColor=none;fontColor=#143642;" parent="zkfFHV4jXpPFQw0GAbJ--0" vertex="1">
          <mxGeometry y="164" width="160" height="30" as="geometry" />
        </mxCell>
        <mxCell id="tEtHllRz7IMj_6NWPrq5-5" value="+ desc String" style="text;strokeColor=none;fillColor=none;align=left;verticalAlign=top;spacingLeft=4;spacingRight=4;overflow=hidden;rotatable=0;points=[[0,0.5],[1,0.5]];portConstraint=eastwest;whiteSpace=wrap;html=1;fontSize=11;rounded=0;labelBackgroundColor=none;fontColor=#143642;" parent="zkfFHV4jXpPFQw0GAbJ--0" vertex="1">
          <mxGeometry y="194" width="160" height="26" as="geometry" />
        </mxCell>
        <mxCell id="CQEFL2mhmP3pLworNLFp-26" value="+ type: Integer" style="text;strokeColor=none;fillColor=none;align=left;verticalAlign=middle;spacingLeft=4;spacingRight=4;overflow=hidden;points=[[0,0.5],[1,0.5]];portConstraint=eastwest;rotatable=0;whiteSpace=wrap;html=1;fontSize=11;rounded=0;labelBackgroundColor=none;fontColor=#143642;" parent="zkfFHV4jXpPFQw0GAbJ--0" vertex="1">
          <mxGeometry y="220" width="160" height="30" as="geometry" />
        </mxCell>
        <mxCell id="zkfFHV4jXpPFQw0GAbJ--4" value="" style="line;html=1;strokeWidth=1;align=left;verticalAlign=middle;spacingTop=-1;spacingLeft=3;spacingRight=3;rotatable=0;labelPosition=right;points=[];portConstraint=eastwest;fontSize=11;rounded=0;labelBackgroundColor=none;fillColor=#FAE5C7;strokeColor=#0F8B8D;fontColor=#143642;" parent="zkfFHV4jXpPFQw0GAbJ--0" vertex="1">
          <mxGeometry y="250" width="160" height="8" as="geometry" />
        </mxCell>
        <mxCell id="zkfFHV4jXpPFQw0GAbJ--5" value="+ login(id,password)" style="text;align=left;verticalAlign=top;spacingLeft=4;spacingRight=4;overflow=hidden;rotatable=0;points=[[0,0.5],[1,0.5]];portConstraint=eastwest;fontSize=11;rounded=0;labelBackgroundColor=none;fontColor=#143642;" parent="zkfFHV4jXpPFQw0GAbJ--0" vertex="1">
          <mxGeometry y="258" width="160" height="26" as="geometry" />
        </mxCell>
        <mxCell id="CQEFL2mhmP3pLworNLFp-4" value="+ register(username,phone)" style="text;strokeColor=none;fillColor=none;align=left;verticalAlign=middle;spacingLeft=4;spacingRight=4;overflow=hidden;points=[[0,0.5],[1,0.5]];portConstraint=eastwest;rotatable=0;whiteSpace=wrap;html=1;fontSize=11;rounded=0;labelBackgroundColor=none;fontColor=#143642;" parent="zkfFHV4jXpPFQw0GAbJ--0" vertex="1">
          <mxGeometry y="284" width="160" height="30" as="geometry" />
        </mxCell>
        <mxCell id="CQEFL2mhmP3pLworNLFp-35" style="edgeStyle=orthogonalEdgeStyle;shape=connector;rounded=0;orthogonalLoop=1;jettySize=auto;html=1;entryX=1;entryY=0.5;entryDx=0;entryDy=0;labelBackgroundColor=none;align=center;verticalAlign=middle;fontFamily=Helvetica;fontSize=11;fontColor=default;endArrow=block;endFill=0;endSize=16;strokeColor=#A8201A;" parent="WIyWlLk6GJQsqaUBKTNV-1" source="CQEFL2mhmP3pLworNLFp-8" target="CQEFL2mhmP3pLworNLFp-17" edge="1">
          <mxGeometry relative="1" as="geometry">
            <mxPoint x="274" y="228" as="targetPoint" />
            <Array as="points">
              <mxPoint x="359" y="76" />
              <mxPoint x="359" y="213" />
            </Array>
          </mxGeometry>
        </mxCell>
        <mxCell id="tEtHllRz7IMj_6NWPrq5-14" style="edgeStyle=orthogonalEdgeStyle;shape=connector;rounded=0;orthogonalLoop=1;jettySize=auto;html=1;entryX=0;entryY=0.5;entryDx=0;entryDy=0;labelBackgroundColor=none;align=center;verticalAlign=middle;fontFamily=Helvetica;fontSize=11;fontColor=default;endArrow=none;endFill=0;strokeColor=#A8201A;" parent="WIyWlLk6GJQsqaUBKTNV-1" source="CQEFL2mhmP3pLworNLFp-8" target="tEtHllRz7IMj_6NWPrq5-7" edge="1">
          <mxGeometry relative="1" as="geometry">
            <Array as="points">
              <mxPoint x="868" y="101" />
              <mxPoint x="868" y="267" />
            </Array>
          </mxGeometry>
        </mxCell>
        <mxCell id="tEtHllRz7IMj_6NWPrq5-162" style="edgeStyle=orthogonalEdgeStyle;shape=connector;rounded=0;orthogonalLoop=1;jettySize=auto;html=1;labelBackgroundColor=none;align=left;verticalAlign=bottom;fontFamily=Helvetica;fontSize=11;fontColor=default;startArrow=none;startFill=0;endArrow=none;endFill=0;startSize=14;endSize=12;strokeColor=#A8201A;" parent="WIyWlLk6GJQsqaUBKTNV-1" source="CQEFL2mhmP3pLworNLFp-8" target="tEtHllRz7IMj_6NWPrq5-149" edge="1">
          <mxGeometry relative="1" as="geometry">
            <Array as="points">
              <mxPoint x="683" y="58" />
              <mxPoint x="683" y="-52" />
            </Array>
          </mxGeometry>
        </mxCell>
        <mxCell id="13WYeAwHN3YP8rNZ9bQY-52" style="edgeStyle=orthogonalEdgeStyle;rounded=0;orthogonalLoop=1;jettySize=auto;html=1;strokeColor=#A8201A;fontColor=#143642;fillColor=#FAE5C7;endArrow=diamondThin;endFill=1;endSize=13;startSize=13;" edge="1" parent="WIyWlLk6GJQsqaUBKTNV-1" source="CQEFL2mhmP3pLworNLFp-8" target="13WYeAwHN3YP8rNZ9bQY-5">
          <mxGeometry relative="1" as="geometry">
            <Array as="points">
              <mxPoint x="618" y="134" />
              <mxPoint x="618" y="247" />
            </Array>
          </mxGeometry>
        </mxCell>
        <mxCell id="CQEFL2mhmP3pLworNLFp-8" value="Student" style="swimlane;fontStyle=1;align=center;verticalAlign=top;childLayout=stackLayout;horizontal=1;startSize=26;horizontalStack=0;resizeParent=1;resizeParentMax=0;resizeLast=0;collapsible=1;marginBottom=0;whiteSpace=wrap;html=1;fontSize=11;rounded=0;labelBackgroundColor=none;fillColor=#FAE5C7;strokeColor=#0F8B8D;fontColor=#143642;" parent="WIyWlLk6GJQsqaUBKTNV-1" vertex="1">
          <mxGeometry x="399.5" y="-46" width="189" height="232" as="geometry" />
        </mxCell>
        <mxCell id="CQEFL2mhmP3pLworNLFp-9" value="+ clazz: String" style="text;strokeColor=none;fillColor=none;align=left;verticalAlign=top;spacingLeft=4;spacingRight=4;overflow=hidden;rotatable=0;points=[[0,0.5],[1,0.5]];portConstraint=eastwest;whiteSpace=wrap;html=1;fontSize=11;rounded=0;labelBackgroundColor=none;fontColor=#143642;" parent="CQEFL2mhmP3pLworNLFp-8" vertex="1">
          <mxGeometry y="26" width="189" height="26" as="geometry" />
        </mxCell>
        <mxCell id="CQEFL2mhmP3pLworNLFp-19" value="+ idCard: String" style="text;strokeColor=none;fillColor=none;align=left;verticalAlign=top;spacingLeft=4;spacingRight=4;overflow=hidden;rotatable=0;points=[[0,0.5],[1,0.5]];portConstraint=eastwest;whiteSpace=wrap;html=1;fontSize=11;rounded=0;labelBackgroundColor=none;fontColor=#143642;" parent="CQEFL2mhmP3pLworNLFp-8" vertex="1">
          <mxGeometry y="52" width="189" height="26" as="geometry" />
        </mxCell>
        <mxCell id="CQEFL2mhmP3pLworNLFp-10" value="" style="line;strokeWidth=1;fillColor=none;align=left;verticalAlign=middle;spacingTop=-1;spacingLeft=3;spacingRight=3;rotatable=0;labelPosition=right;points=[];portConstraint=eastwest;fontSize=11;rounded=0;labelBackgroundColor=none;strokeColor=#0F8B8D;fontColor=#143642;" parent="CQEFL2mhmP3pLworNLFp-8" vertex="1">
          <mxGeometry y="78" width="189" height="8" as="geometry" />
        </mxCell>
        <mxCell id="CQEFL2mhmP3pLworNLFp-11" value="+ updateInfo(id): boolean" style="text;strokeColor=none;fillColor=none;align=left;verticalAlign=top;spacingLeft=4;spacingRight=4;overflow=hidden;rotatable=0;points=[[0,0.5],[1,0.5]];portConstraint=eastwest;whiteSpace=wrap;html=1;fontSize=11;rounded=0;labelBackgroundColor=none;fontColor=#143642;" parent="CQEFL2mhmP3pLworNLFp-8" vertex="1">
          <mxGeometry y="86" width="189" height="26" as="geometry" />
        </mxCell>
        <mxCell id="tEtHllRz7IMj_6NWPrq5-161" value="+ queryScoreByEid(examId)" style="text;strokeColor=none;fillColor=none;align=left;verticalAlign=middle;spacingLeft=4;spacingRight=4;overflow=hidden;points=[[0,0.5],[1,0.5]];portConstraint=eastwest;rotatable=0;whiteSpace=wrap;html=1;fontSize=11;fontFamily=Helvetica;rounded=0;labelBackgroundColor=none;fontColor=#143642;" parent="CQEFL2mhmP3pLworNLFp-8" vertex="1">
          <mxGeometry y="112" width="189" height="30" as="geometry" />
        </mxCell>
        <mxCell id="13WYeAwHN3YP8rNZ9bQY-48" value="+ queryWQByUserId(userId)" style="text;strokeColor=none;fillColor=none;align=left;verticalAlign=middle;spacingLeft=4;spacingRight=4;overflow=hidden;points=[[0,0.5],[1,0.5]];portConstraint=eastwest;rotatable=0;whiteSpace=wrap;html=1;fontSize=11;fontFamily=Helvetica;rounded=0;labelBackgroundColor=none;fontColor=#143642;" vertex="1" parent="CQEFL2mhmP3pLworNLFp-8">
          <mxGeometry y="142" width="189" height="30" as="geometry" />
        </mxCell>
        <mxCell id="13WYeAwHN3YP8rNZ9bQY-57" value="+ deleteWQByUserIdAndWQId(useId,WQId)" style="text;strokeColor=none;fillColor=none;align=left;verticalAlign=middle;spacingLeft=4;spacingRight=4;overflow=hidden;points=[[0,0.5],[1,0.5]];portConstraint=eastwest;rotatable=0;whiteSpace=wrap;html=1;fontSize=11;fontFamily=Helvetica;rounded=0;labelBackgroundColor=none;fontColor=#143642;" vertex="1" parent="CQEFL2mhmP3pLworNLFp-8">
          <mxGeometry y="172" width="189" height="30" as="geometry" />
        </mxCell>
        <mxCell id="tEtHllRz7IMj_6NWPrq5-0" value="+ doExam(): void" style="text;strokeColor=none;fillColor=none;align=left;verticalAlign=middle;spacingLeft=4;spacingRight=4;overflow=hidden;points=[[0,0.5],[1,0.5]];portConstraint=eastwest;rotatable=0;whiteSpace=wrap;html=1;fontSize=11;rounded=0;labelBackgroundColor=none;fontColor=#143642;" parent="CQEFL2mhmP3pLworNLFp-8" vertex="1">
          <mxGeometry y="202" width="189" height="30" as="geometry" />
        </mxCell>
        <mxCell id="CQEFL2mhmP3pLworNLFp-34" style="edgeStyle=orthogonalEdgeStyle;shape=connector;rounded=0;orthogonalLoop=1;jettySize=auto;html=1;entryX=0.998;entryY=0.115;entryDx=0;entryDy=0;labelBackgroundColor=none;align=center;verticalAlign=middle;fontFamily=Helvetica;fontSize=11;fontColor=default;endArrow=block;endFill=0;endSize=16;entryPerimeter=0;strokeColor=#A8201A;" parent="WIyWlLk6GJQsqaUBKTNV-1" source="CQEFL2mhmP3pLworNLFp-20" target="CQEFL2mhmP3pLworNLFp-26" edge="1">
          <mxGeometry relative="1" as="geometry" />
        </mxCell>
        <mxCell id="tEtHllRz7IMj_6NWPrq5-75" style="edgeStyle=none;shape=connector;rounded=0;orthogonalLoop=1;jettySize=auto;html=1;entryX=0.5;entryY=0;entryDx=0;entryDy=0;labelBackgroundColor=none;align=left;verticalAlign=bottom;fontFamily=Helvetica;fontSize=11;fontColor=default;startArrow=none;startFill=0;endArrow=none;endFill=0;startSize=14;endSize=12;strokeColor=#A8201A;" parent="WIyWlLk6GJQsqaUBKTNV-1" source="CQEFL2mhmP3pLworNLFp-20" target="tEtHllRz7IMj_6NWPrq5-67" edge="1">
          <mxGeometry relative="1" as="geometry" />
        </mxCell>
        <mxCell id="13WYeAwHN3YP8rNZ9bQY-53" style="edgeStyle=orthogonalEdgeStyle;rounded=0;orthogonalLoop=1;jettySize=auto;html=1;strokeColor=#A8201A;fontColor=#143642;fillColor=#FAE5C7;endArrow=none;endFill=0;" edge="1" parent="WIyWlLk6GJQsqaUBKTNV-1" source="CQEFL2mhmP3pLworNLFp-20" target="13WYeAwHN3YP8rNZ9bQY-5">
          <mxGeometry relative="1" as="geometry">
            <Array as="points">
              <mxPoint x="618" y="380" />
              <mxPoint x="618" y="310" />
            </Array>
          </mxGeometry>
        </mxCell>
        <mxCell id="CQEFL2mhmP3pLworNLFp-20" value="Teacher" style="swimlane;fontStyle=1;align=center;verticalAlign=top;childLayout=stackLayout;horizontal=1;startSize=26;horizontalStack=0;resizeParent=1;resizeParentMax=0;resizeLast=0;collapsible=1;marginBottom=0;whiteSpace=wrap;html=1;fontSize=11;rounded=0;labelBackgroundColor=none;fillColor=#FAE5C7;strokeColor=#0F8B8D;fontColor=#143642;" parent="WIyWlLk6GJQsqaUBKTNV-1" vertex="1">
          <mxGeometry x="414" y="292" width="160" height="206" as="geometry" />
        </mxCell>
        <mxCell id="CQEFL2mhmP3pLworNLFp-21" value="+ dept: String" style="text;strokeColor=none;fillColor=none;align=left;verticalAlign=top;spacingLeft=4;spacingRight=4;overflow=hidden;rotatable=0;points=[[0,0.5],[1,0.5]];portConstraint=eastwest;whiteSpace=wrap;html=1;fontSize=11;rounded=0;labelBackgroundColor=none;fontColor=#143642;" parent="CQEFL2mhmP3pLworNLFp-20" vertex="1">
          <mxGeometry y="26" width="160" height="26" as="geometry" />
        </mxCell>
        <mxCell id="CQEFL2mhmP3pLworNLFp-22" value="" style="line;strokeWidth=1;fillColor=none;align=left;verticalAlign=middle;spacingTop=-1;spacingLeft=3;spacingRight=3;rotatable=0;labelPosition=right;points=[];portConstraint=eastwest;fontSize=11;rounded=0;labelBackgroundColor=none;strokeColor=#0F8B8D;fontColor=#143642;" parent="CQEFL2mhmP3pLworNLFp-20" vertex="1">
          <mxGeometry y="52" width="160" height="8" as="geometry" />
        </mxCell>
        <mxCell id="13WYeAwHN3YP8rNZ9bQY-0" value="+ addStudent(student): void" style="text;strokeColor=none;fillColor=none;align=left;verticalAlign=middle;spacingLeft=4;spacingRight=4;overflow=hidden;points=[[0,0.5],[1,0.5]];portConstraint=eastwest;rotatable=0;whiteSpace=wrap;html=1;labelBackgroundColor=none;fontColor=#143642;fontSize=11;" vertex="1" parent="CQEFL2mhmP3pLworNLFp-20">
          <mxGeometry y="60" width="160" height="30" as="geometry" />
        </mxCell>
        <mxCell id="13WYeAwHN3YP8rNZ9bQY-59" value="+ generateClazz(): void" style="text;strokeColor=none;fillColor=none;align=left;verticalAlign=middle;spacingLeft=4;spacingRight=4;overflow=hidden;points=[[0,0.5],[1,0.5]];portConstraint=eastwest;rotatable=0;whiteSpace=wrap;html=1;labelBackgroundColor=none;fontColor=#143642;fontSize=11;" vertex="1" parent="CQEFL2mhmP3pLworNLFp-20">
          <mxGeometry y="90" width="160" height="30" as="geometry" />
        </mxCell>
        <mxCell id="13WYeAwHN3YP8rNZ9bQY-3" value="+ deleteStudent(userId): void" style="text;strokeColor=none;fillColor=none;align=left;verticalAlign=middle;spacingLeft=4;spacingRight=4;overflow=hidden;points=[[0,0.5],[1,0.5]];portConstraint=eastwest;rotatable=0;whiteSpace=wrap;html=1;labelBackgroundColor=none;fontColor=#143642;fontSize=11;" vertex="1" parent="CQEFL2mhmP3pLworNLFp-20">
          <mxGeometry y="120" width="160" height="30" as="geometry" />
        </mxCell>
        <mxCell id="tEtHllRz7IMj_6NWPrq5-74" value="+ createPaper(): Paper" style="text;strokeColor=none;fillColor=none;align=left;verticalAlign=middle;spacingLeft=4;spacingRight=4;overflow=hidden;points=[[0,0.5],[1,0.5]];portConstraint=eastwest;rotatable=0;whiteSpace=wrap;html=1;fontSize=11;fontFamily=Helvetica;rounded=0;labelBackgroundColor=none;fontColor=#143642;" parent="CQEFL2mhmP3pLworNLFp-20" vertex="1">
          <mxGeometry y="150" width="160" height="30" as="geometry" />
        </mxCell>
        <mxCell id="CQEFL2mhmP3pLworNLFp-23" value="+ publishExam(): void" style="text;strokeColor=none;fillColor=none;align=left;verticalAlign=top;spacingLeft=4;spacingRight=4;overflow=hidden;rotatable=0;points=[[0,0.5],[1,0.5]];portConstraint=eastwest;whiteSpace=wrap;html=1;fontSize=11;rounded=0;labelBackgroundColor=none;fontColor=#143642;" parent="CQEFL2mhmP3pLworNLFp-20" vertex="1">
          <mxGeometry y="180" width="160" height="26" as="geometry" />
        </mxCell>
        <mxCell id="tEtHllRz7IMj_6NWPrq5-6" value="Exam" style="swimlane;fontStyle=1;align=center;verticalAlign=top;childLayout=stackLayout;horizontal=1;startSize=26;horizontalStack=0;resizeParent=1;resizeParentMax=0;resizeLast=0;collapsible=1;marginBottom=0;whiteSpace=wrap;html=1;fontSize=11;rounded=0;labelBackgroundColor=none;fillColor=#FAE5C7;strokeColor=#0F8B8D;fontColor=#143642;" parent="WIyWlLk6GJQsqaUBKTNV-1" vertex="1">
          <mxGeometry x="1129" y="198" width="160" height="146" as="geometry" />
        </mxCell>
        <mxCell id="tEtHllRz7IMj_6NWPrq5-10" value="+ examId: Long" style="text;strokeColor=none;fillColor=none;align=left;verticalAlign=middle;spacingLeft=4;spacingRight=4;overflow=hidden;points=[[0,0.5],[1,0.5]];portConstraint=eastwest;rotatable=0;whiteSpace=wrap;html=1;fontSize=11;fontFamily=Helvetica;rounded=0;labelBackgroundColor=none;fontColor=#143642;" parent="tEtHllRz7IMj_6NWPrq5-6" vertex="1">
          <mxGeometry y="26" width="160" height="30" as="geometry" />
        </mxCell>
        <mxCell id="tEtHllRz7IMj_6NWPrq5-7" value="+ examName: String" style="text;strokeColor=none;fillColor=none;align=left;verticalAlign=top;spacingLeft=4;spacingRight=4;overflow=hidden;rotatable=0;points=[[0,0.5],[1,0.5]];portConstraint=eastwest;whiteSpace=wrap;html=1;fontSize=11;rounded=0;labelBackgroundColor=none;fontColor=#143642;" parent="tEtHllRz7IMj_6NWPrq5-6" vertex="1">
          <mxGeometry y="56" width="160" height="26" as="geometry" />
        </mxCell>
        <mxCell id="tEtHllRz7IMj_6NWPrq5-12" value="+ examDesc: String" style="text;strokeColor=none;fillColor=none;align=left;verticalAlign=middle;spacingLeft=4;spacingRight=4;overflow=hidden;points=[[0,0.5],[1,0.5]];portConstraint=eastwest;rotatable=0;whiteSpace=wrap;html=1;fontSize=11;fontFamily=Helvetica;rounded=0;labelBackgroundColor=none;fontColor=#143642;" parent="tEtHllRz7IMj_6NWPrq5-6" vertex="1">
          <mxGeometry y="82" width="160" height="30" as="geometry" />
        </mxCell>
        <mxCell id="tEtHllRz7IMj_6NWPrq5-8" value="" style="line;strokeWidth=1;fillColor=none;align=left;verticalAlign=middle;spacingTop=-1;spacingLeft=3;spacingRight=3;rotatable=0;labelPosition=right;points=[];portConstraint=eastwest;fontSize=11;rounded=0;labelBackgroundColor=none;strokeColor=#0F8B8D;fontColor=#143642;" parent="tEtHllRz7IMj_6NWPrq5-6" vertex="1">
          <mxGeometry y="112" width="160" height="8" as="geometry" />
        </mxCell>
        <mxCell id="tEtHllRz7IMj_6NWPrq5-9" value="+ generateScore(): Score" style="text;strokeColor=none;fillColor=none;align=left;verticalAlign=top;spacingLeft=4;spacingRight=4;overflow=hidden;rotatable=0;points=[[0,0.5],[1,0.5]];portConstraint=eastwest;whiteSpace=wrap;html=1;fontSize=11;rounded=0;labelBackgroundColor=none;fontColor=#143642;" parent="tEtHllRz7IMj_6NWPrq5-6" vertex="1">
          <mxGeometry y="120" width="160" height="26" as="geometry" />
        </mxCell>
        <mxCell id="tEtHllRz7IMj_6NWPrq5-15" value="1" style="text;html=1;strokeColor=none;fillColor=none;align=center;verticalAlign=middle;whiteSpace=wrap;rounded=0;fontSize=11;fontFamily=Helvetica;labelBackgroundColor=none;fontColor=#143642;" parent="WIyWlLk6GJQsqaUBKTNV-1" vertex="1">
          <mxGeometry x="570" y="78" width="60" height="30" as="geometry" />
        </mxCell>
        <mxCell id="tEtHllRz7IMj_6NWPrq5-16" value="0..n" style="text;html=1;strokeColor=none;fillColor=none;align=center;verticalAlign=middle;whiteSpace=wrap;rounded=0;fontSize=11;fontFamily=Helvetica;labelBackgroundColor=none;fontColor=#143642;" parent="WIyWlLk6GJQsqaUBKTNV-1" vertex="1">
          <mxGeometry x="1075" y="241" width="60" height="30" as="geometry" />
        </mxCell>
        <mxCell id="tEtHllRz7IMj_6NWPrq5-28" value="1..n" style="text;html=1;strokeColor=none;fillColor=none;align=center;verticalAlign=middle;whiteSpace=wrap;rounded=0;fontSize=11;fontFamily=Helvetica;labelBackgroundColor=none;fontColor=#143642;" parent="WIyWlLk6GJQsqaUBKTNV-1" vertex="1">
          <mxGeometry x="610" y="222" width="60" height="30" as="geometry" />
        </mxCell>
        <mxCell id="tEtHllRz7IMj_6NWPrq5-79" style="edgeStyle=none;shape=connector;rounded=0;orthogonalLoop=1;jettySize=auto;html=1;labelBackgroundColor=none;align=left;verticalAlign=bottom;fontFamily=Helvetica;fontSize=11;fontColor=default;startArrow=diamondThin;startFill=1;endArrow=none;endFill=0;startSize=14;endSize=12;strokeColor=#A8201A;" parent="WIyWlLk6GJQsqaUBKTNV-1" source="tEtHllRz7IMj_6NWPrq5-67" target="tEtHllRz7IMj_6NWPrq5-30" edge="1">
          <mxGeometry relative="1" as="geometry" />
        </mxCell>
        <mxCell id="tEtHllRz7IMj_6NWPrq5-67" value="Paper" style="swimlane;fontStyle=1;align=center;verticalAlign=top;childLayout=stackLayout;horizontal=1;startSize=26;horizontalStack=0;resizeParent=1;resizeParentMax=0;resizeLast=0;collapsible=1;marginBottom=0;whiteSpace=wrap;html=1;fontSize=11;rounded=0;labelBackgroundColor=none;fillColor=#FAE5C7;strokeColor=#0F8B8D;fontColor=#143642;" parent="WIyWlLk6GJQsqaUBKTNV-1" vertex="1">
          <mxGeometry x="414" y="797" width="160" height="206" as="geometry" />
        </mxCell>
        <mxCell id="tEtHllRz7IMj_6NWPrq5-68" value="+ paperId: Long" style="text;strokeColor=none;fillColor=none;align=left;verticalAlign=top;spacingLeft=4;spacingRight=4;overflow=hidden;rotatable=0;points=[[0,0.5],[1,0.5]];portConstraint=eastwest;whiteSpace=wrap;html=1;fontSize=11;rounded=0;labelBackgroundColor=none;fontColor=#143642;" parent="tEtHllRz7IMj_6NWPrq5-67" vertex="1">
          <mxGeometry y="26" width="160" height="26" as="geometry" />
        </mxCell>
        <mxCell id="tEtHllRz7IMj_6NWPrq5-72" value="+ questionType: Integer" style="text;strokeColor=none;fillColor=none;align=left;verticalAlign=middle;spacingLeft=4;spacingRight=4;overflow=hidden;points=[[0,0.5],[1,0.5]];portConstraint=eastwest;rotatable=0;whiteSpace=wrap;html=1;fontSize=11;fontFamily=Helvetica;rounded=0;labelBackgroundColor=none;fontColor=#143642;" parent="tEtHllRz7IMj_6NWPrq5-67" vertex="1">
          <mxGeometry y="52" width="160" height="30" as="geometry" />
        </mxCell>
        <mxCell id="tEtHllRz7IMj_6NWPrq5-73" value="+&amp;nbsp;qid: Long" style="text;strokeColor=none;fillColor=none;align=left;verticalAlign=middle;spacingLeft=4;spacingRight=4;overflow=hidden;points=[[0,0.5],[1,0.5]];portConstraint=eastwest;rotatable=0;whiteSpace=wrap;html=1;fontSize=11;fontFamily=Helvetica;rounded=0;labelBackgroundColor=none;fontColor=#143642;" parent="tEtHllRz7IMj_6NWPrq5-67" vertex="1">
          <mxGeometry y="82" width="160" height="30" as="geometry" />
        </mxCell>
        <mxCell id="tEtHllRz7IMj_6NWPrq5-69" value="" style="line;strokeWidth=1;fillColor=none;align=left;verticalAlign=middle;spacingTop=-1;spacingLeft=3;spacingRight=3;rotatable=0;labelPosition=right;points=[];portConstraint=eastwest;fontSize=11;rounded=0;labelBackgroundColor=none;strokeColor=#0F8B8D;fontColor=#143642;" parent="tEtHllRz7IMj_6NWPrq5-67" vertex="1">
          <mxGeometry y="112" width="160" height="8" as="geometry" />
        </mxCell>
        <mxCell id="tEtHllRz7IMj_6NWPrq5-70" value="+ createPaper(): Paper" style="text;strokeColor=none;fillColor=none;align=left;verticalAlign=top;spacingLeft=4;spacingRight=4;overflow=hidden;rotatable=0;points=[[0,0.5],[1,0.5]];portConstraint=eastwest;whiteSpace=wrap;html=1;fontSize=11;rounded=0;labelBackgroundColor=none;fontColor=#143642;" parent="tEtHllRz7IMj_6NWPrq5-67" vertex="1">
          <mxGeometry y="120" width="160" height="26" as="geometry" />
        </mxCell>
        <mxCell id="13WYeAwHN3YP8rNZ9bQY-14" value="+ deleteByPId(paperId)" style="text;strokeColor=none;fillColor=none;align=left;verticalAlign=middle;spacingLeft=4;spacingRight=4;overflow=hidden;points=[[0,0.5],[1,0.5]];portConstraint=eastwest;rotatable=0;whiteSpace=wrap;html=1;fontColor=#143642;fontSize=11;" vertex="1" parent="tEtHllRz7IMj_6NWPrq5-67">
          <mxGeometry y="146" width="160" height="30" as="geometry" />
        </mxCell>
        <mxCell id="13WYeAwHN3YP8rNZ9bQY-15" value="+ updatePaper(paper)" style="text;strokeColor=none;fillColor=none;align=left;verticalAlign=middle;spacingLeft=4;spacingRight=4;overflow=hidden;points=[[0,0.5],[1,0.5]];portConstraint=eastwest;rotatable=0;whiteSpace=wrap;html=1;fontColor=#143642;fontSize=11;" vertex="1" parent="tEtHllRz7IMj_6NWPrq5-67">
          <mxGeometry y="176" width="160" height="30" as="geometry" />
        </mxCell>
        <mxCell id="13WYeAwHN3YP8rNZ9bQY-41" style="edgeStyle=orthogonalEdgeStyle;rounded=0;orthogonalLoop=1;jettySize=auto;html=1;strokeColor=#A8201A;fontColor=#143642;fillColor=#FAE5C7;endArrow=none;endFill=0;strokeWidth=1;endSize=11;startSize=11;" edge="1" parent="WIyWlLk6GJQsqaUBKTNV-1" source="tEtHllRz7IMj_6NWPrq5-30" target="13WYeAwHN3YP8rNZ9bQY-24">
          <mxGeometry relative="1" as="geometry" />
        </mxCell>
        <mxCell id="tEtHllRz7IMj_6NWPrq5-30" value="&lt;i&gt;Question&lt;/i&gt;" style="swimlane;fontStyle=1;align=center;verticalAlign=top;childLayout=stackLayout;horizontal=1;startSize=26;horizontalStack=0;resizeParent=1;resizeParentMax=0;resizeLast=0;collapsible=1;marginBottom=0;whiteSpace=wrap;html=1;fontSize=11;rounded=0;labelBackgroundColor=none;fillColor=#FAE5C7;strokeColor=#0F8B8D;fontColor=#143642;" parent="WIyWlLk6GJQsqaUBKTNV-1" vertex="1">
          <mxGeometry x="816.87" y="752" width="196.25" height="296" as="geometry" />
        </mxCell>
        <mxCell id="tEtHllRz7IMj_6NWPrq5-31" value="+ qid: Long" style="text;strokeColor=none;fillColor=none;align=left;verticalAlign=top;spacingLeft=4;spacingRight=4;overflow=hidden;rotatable=0;points=[[0,0.5],[1,0.5]];portConstraint=eastwest;whiteSpace=wrap;html=1;fontSize=11;rounded=0;labelBackgroundColor=none;fontColor=#143642;" parent="tEtHllRz7IMj_6NWPrq5-30" vertex="1">
          <mxGeometry y="26" width="196.25" height="26" as="geometry" />
        </mxCell>
        <mxCell id="tEtHllRz7IMj_6NWPrq5-34" value="+ content: String" style="text;strokeColor=none;fillColor=none;align=left;verticalAlign=middle;spacingLeft=4;spacingRight=4;overflow=hidden;points=[[0,0.5],[1,0.5]];portConstraint=eastwest;rotatable=0;whiteSpace=wrap;html=1;fontSize=11;fontFamily=Helvetica;rounded=0;labelBackgroundColor=none;fontColor=#143642;" parent="tEtHllRz7IMj_6NWPrq5-30" vertex="1">
          <mxGeometry y="52" width="196.25" height="30" as="geometry" />
        </mxCell>
        <mxCell id="tEtHllRz7IMj_6NWPrq5-35" value="+ type: Integer" style="text;strokeColor=none;fillColor=none;align=left;verticalAlign=middle;spacingLeft=4;spacingRight=4;overflow=hidden;points=[[0,0.5],[1,0.5]];portConstraint=eastwest;rotatable=0;whiteSpace=wrap;html=1;fontSize=11;fontFamily=Helvetica;rounded=0;labelBackgroundColor=none;fontColor=#143642;" parent="tEtHllRz7IMj_6NWPrq5-30" vertex="1">
          <mxGeometry y="82" width="196.25" height="30" as="geometry" />
        </mxCell>
        <mxCell id="tEtHllRz7IMj_6NWPrq5-36" value="+ level: Integer" style="text;strokeColor=none;fillColor=none;align=left;verticalAlign=middle;spacingLeft=4;spacingRight=4;overflow=hidden;points=[[0,0.5],[1,0.5]];portConstraint=eastwest;rotatable=0;whiteSpace=wrap;html=1;fontSize=11;fontFamily=Helvetica;rounded=0;labelBackgroundColor=none;fontColor=#143642;" parent="tEtHllRz7IMj_6NWPrq5-30" vertex="1">
          <mxGeometry y="112" width="196.25" height="30" as="geometry" />
        </mxCell>
        <mxCell id="tEtHllRz7IMj_6NWPrq5-39" value="+ analysis: String" style="text;strokeColor=none;fillColor=none;align=left;verticalAlign=middle;spacingLeft=4;spacingRight=4;overflow=hidden;points=[[0,0.5],[1,0.5]];portConstraint=eastwest;rotatable=0;whiteSpace=wrap;html=1;fontSize=11;fontFamily=Helvetica;rounded=0;labelBackgroundColor=none;fontColor=#143642;" parent="tEtHllRz7IMj_6NWPrq5-30" vertex="1">
          <mxGeometry y="142" width="196.25" height="30" as="geometry" />
        </mxCell>
        <mxCell id="tEtHllRz7IMj_6NWPrq5-38" value="+ rightAnswer: String" style="text;strokeColor=none;fillColor=none;align=left;verticalAlign=middle;spacingLeft=4;spacingRight=4;overflow=hidden;points=[[0,0.5],[1,0.5]];portConstraint=eastwest;rotatable=0;whiteSpace=wrap;html=1;fontSize=11;fontFamily=Helvetica;rounded=0;labelBackgroundColor=none;fontColor=#143642;" parent="tEtHllRz7IMj_6NWPrq5-30" vertex="1">
          <mxGeometry y="172" width="196.25" height="30" as="geometry" />
        </mxCell>
        <mxCell id="tEtHllRz7IMj_6NWPrq5-41" value="+ score: Integer" style="text;strokeColor=none;fillColor=none;align=left;verticalAlign=middle;spacingLeft=4;spacingRight=4;overflow=hidden;points=[[0,0.5],[1,0.5]];portConstraint=eastwest;rotatable=0;whiteSpace=wrap;html=1;fontSize=11;fontFamily=Helvetica;rounded=0;labelBackgroundColor=none;fontColor=#143642;" parent="tEtHllRz7IMj_6NWPrq5-30" vertex="1">
          <mxGeometry y="202" width="196.25" height="30" as="geometry" />
        </mxCell>
        <mxCell id="tEtHllRz7IMj_6NWPrq5-32" value="" style="line;strokeWidth=1;fillColor=none;align=left;verticalAlign=middle;spacingTop=-1;spacingLeft=3;spacingRight=3;rotatable=0;labelPosition=right;points=[];portConstraint=eastwest;fontSize=11;rounded=0;labelBackgroundColor=none;strokeColor=#0F8B8D;fontColor=#143642;" parent="tEtHllRz7IMj_6NWPrq5-30" vertex="1">
          <mxGeometry y="232" width="196.25" height="8" as="geometry" />
        </mxCell>
        <mxCell id="tEtHllRz7IMj_6NWPrq5-42" value="+ addQuestion(question): boolean" style="text;strokeColor=none;fillColor=none;align=left;verticalAlign=middle;spacingLeft=4;spacingRight=4;overflow=hidden;points=[[0,0.5],[1,0.5]];portConstraint=eastwest;rotatable=0;whiteSpace=wrap;html=1;fontSize=11;fontFamily=Helvetica;rounded=0;labelBackgroundColor=none;fontColor=#143642;" parent="tEtHllRz7IMj_6NWPrq5-30" vertex="1">
          <mxGeometry y="240" width="196.25" height="30" as="geometry" />
        </mxCell>
        <mxCell id="tEtHllRz7IMj_6NWPrq5-33" value="+updateQuesionInfoByQid(qid)" style="text;strokeColor=none;fillColor=none;align=left;verticalAlign=top;spacingLeft=4;spacingRight=4;overflow=hidden;rotatable=0;points=[[0,0.5],[1,0.5]];portConstraint=eastwest;whiteSpace=wrap;html=1;fontSize=11;rounded=0;labelBackgroundColor=none;fontColor=#143642;" parent="tEtHllRz7IMj_6NWPrq5-30" vertex="1">
          <mxGeometry y="270" width="196.25" height="26" as="geometry" />
        </mxCell>
        <mxCell id="tEtHllRz7IMj_6NWPrq5-48" style="edgeStyle=orthogonalEdgeStyle;shape=connector;rounded=0;orthogonalLoop=1;jettySize=auto;html=1;entryX=0.5;entryY=0;entryDx=0;entryDy=0;labelBackgroundColor=none;align=left;verticalAlign=bottom;fontFamily=Helvetica;fontSize=11;fontColor=default;startArrow=block;startFill=0;endArrow=none;endFill=0;startSize=14;endSize=12;exitX=0.257;exitY=1.004;exitDx=0;exitDy=0;exitPerimeter=0;strokeColor=#A8201A;" parent="WIyWlLk6GJQsqaUBKTNV-1" source="tEtHllRz7IMj_6NWPrq5-33" target="tEtHllRz7IMj_6NWPrq5-44" edge="1">
          <mxGeometry relative="1" as="geometry">
            <mxPoint x="860.5" y="788" as="sourcePoint" />
          </mxGeometry>
        </mxCell>
        <mxCell id="tEtHllRz7IMj_6NWPrq5-60" style="edgeStyle=orthogonalEdgeStyle;shape=connector;rounded=0;orthogonalLoop=1;jettySize=auto;html=1;entryX=0.489;entryY=0.014;entryDx=0;entryDy=0;labelBackgroundColor=none;align=left;verticalAlign=bottom;fontFamily=Helvetica;fontSize=11;fontColor=default;startArrow=block;startFill=0;endArrow=none;endFill=0;startSize=14;endSize=12;entryPerimeter=0;strokeColor=#A8201A;exitX=0.484;exitY=0.989;exitDx=0;exitDy=0;exitPerimeter=0;" parent="WIyWlLk6GJQsqaUBKTNV-1" target="tEtHllRz7IMj_6NWPrq5-52" edge="1" source="tEtHllRz7IMj_6NWPrq5-33">
          <mxGeometry relative="1" as="geometry">
            <mxPoint x="909" y="797" as="sourcePoint" />
            <mxPoint x="909" y="875" as="targetPoint" />
          </mxGeometry>
        </mxCell>
        <mxCell id="tEtHllRz7IMj_6NWPrq5-66" style="edgeStyle=orthogonalEdgeStyle;shape=connector;rounded=0;orthogonalLoop=1;jettySize=auto;html=1;entryX=0.466;entryY=0.014;entryDx=0;entryDy=0;labelBackgroundColor=none;align=left;verticalAlign=bottom;fontFamily=Helvetica;fontSize=11;fontColor=default;startArrow=block;startFill=0;endArrow=none;endFill=0;startSize=14;endSize=12;entryPerimeter=0;exitX=0.694;exitY=1.004;exitDx=0;exitDy=0;exitPerimeter=0;strokeColor=#A8201A;" parent="WIyWlLk6GJQsqaUBKTNV-1" source="tEtHllRz7IMj_6NWPrq5-33" target="tEtHllRz7IMj_6NWPrq5-61" edge="1">
          <mxGeometry relative="1" as="geometry">
            <mxPoint x="974" y="837" as="sourcePoint" />
            <mxPoint x="1113.5" y="896" as="targetPoint" />
          </mxGeometry>
        </mxCell>
        <mxCell id="tEtHllRz7IMj_6NWPrq5-80" value="0..n" style="text;html=1;strokeColor=none;fillColor=none;align=center;verticalAlign=middle;whiteSpace=wrap;rounded=0;fontSize=11;fontFamily=Helvetica;labelBackgroundColor=none;fontColor=#143642;" parent="WIyWlLk6GJQsqaUBKTNV-1" vertex="1">
          <mxGeometry x="443" y="767" width="60" height="30" as="geometry" />
        </mxCell>
        <mxCell id="tEtHllRz7IMj_6NWPrq5-136" value="1" style="text;html=1;strokeColor=none;fillColor=none;align=center;verticalAlign=middle;whiteSpace=wrap;rounded=0;fontSize=11;fontFamily=Helvetica;labelBackgroundColor=none;fontColor=#143642;" parent="WIyWlLk6GJQsqaUBKTNV-1" vertex="1">
          <mxGeometry x="550" y="869" width="60" height="30" as="geometry" />
        </mxCell>
        <mxCell id="tEtHllRz7IMj_6NWPrq5-137" value="1" style="text;html=1;strokeColor=none;fillColor=none;align=center;verticalAlign=middle;whiteSpace=wrap;rounded=0;fontSize=11;fontFamily=Helvetica;labelBackgroundColor=none;fontColor=#143642;" parent="WIyWlLk6GJQsqaUBKTNV-1" vertex="1">
          <mxGeometry x="450" y="498" width="60" height="30" as="geometry" />
        </mxCell>
        <mxCell id="tEtHllRz7IMj_6NWPrq5-138" value="1" style="text;html=1;strokeColor=none;fillColor=none;align=center;verticalAlign=middle;whiteSpace=wrap;rounded=0;fontSize=11;fontFamily=Helvetica;labelBackgroundColor=none;fontColor=#143642;" parent="WIyWlLk6GJQsqaUBKTNV-1" vertex="1">
          <mxGeometry x="556" y="418" width="60" height="30" as="geometry" />
        </mxCell>
        <mxCell id="tEtHllRz7IMj_6NWPrq5-139" value="0..n" style="text;html=1;strokeColor=none;fillColor=none;align=center;verticalAlign=middle;whiteSpace=wrap;rounded=0;fontSize=11;fontFamily=Helvetica;labelBackgroundColor=none;fontColor=#143642;" parent="WIyWlLk6GJQsqaUBKTNV-1" vertex="1">
          <mxGeometry x="1075" y="331" width="60" height="30" as="geometry" />
        </mxCell>
        <mxCell id="tEtHllRz7IMj_6NWPrq5-140" style="edgeStyle=orthogonalEdgeStyle;shape=connector;rounded=0;orthogonalLoop=1;jettySize=auto;html=1;entryX=0.75;entryY=0;entryDx=0;entryDy=0;labelBackgroundColor=none;align=left;verticalAlign=bottom;fontFamily=Helvetica;fontSize=11;fontColor=default;startArrow=diamondThin;startFill=1;endArrow=none;endFill=0;startSize=14;endSize=12;strokeColor=#A8201A;" parent="WIyWlLk6GJQsqaUBKTNV-1" source="tEtHllRz7IMj_6NWPrq5-6" target="tEtHllRz7IMj_6NWPrq5-67" edge="1">
          <mxGeometry relative="1" as="geometry">
            <Array as="points">
              <mxPoint x="1217" y="622" />
              <mxPoint x="534" y="622" />
            </Array>
            <mxPoint x="1181" y="609" as="sourcePoint" />
          </mxGeometry>
        </mxCell>
        <mxCell id="tEtHllRz7IMj_6NWPrq5-142" value="1" style="text;html=1;strokeColor=none;fillColor=none;align=center;verticalAlign=middle;whiteSpace=wrap;rounded=0;fontSize=11;fontFamily=Helvetica;labelBackgroundColor=none;fontColor=#143642;" parent="WIyWlLk6GJQsqaUBKTNV-1" vertex="1">
          <mxGeometry x="514" y="763" width="60" height="30" as="geometry" />
        </mxCell>
        <mxCell id="tEtHllRz7IMj_6NWPrq5-44" value="MutipleOrSingleQuestion" style="swimlane;fontStyle=1;align=center;verticalAlign=top;childLayout=stackLayout;horizontal=1;startSize=26;horizontalStack=0;resizeParent=1;resizeParentMax=0;resizeLast=0;collapsible=1;marginBottom=0;whiteSpace=wrap;html=1;fontSize=11;rounded=0;labelBackgroundColor=none;fillColor=#FAE5C7;strokeColor=#0F8B8D;fontColor=#143642;" parent="WIyWlLk6GJQsqaUBKTNV-1" vertex="1">
          <mxGeometry x="649" y="1131" width="160" height="176" as="geometry" />
        </mxCell>
        <mxCell id="tEtHllRz7IMj_6NWPrq5-45" value="+ questionA: String" style="text;strokeColor=none;fillColor=none;align=left;verticalAlign=top;spacingLeft=4;spacingRight=4;overflow=hidden;rotatable=0;points=[[0,0.5],[1,0.5]];portConstraint=eastwest;whiteSpace=wrap;html=1;fontSize=11;rounded=0;labelBackgroundColor=none;fontColor=#143642;" parent="tEtHllRz7IMj_6NWPrq5-44" vertex="1">
          <mxGeometry y="26" width="160" height="26" as="geometry" />
        </mxCell>
        <mxCell id="tEtHllRz7IMj_6NWPrq5-49" value="+ questionB: String" style="text;strokeColor=none;fillColor=none;align=left;verticalAlign=middle;spacingLeft=4;spacingRight=4;overflow=hidden;points=[[0,0.5],[1,0.5]];portConstraint=eastwest;rotatable=0;whiteSpace=wrap;html=1;fontSize=11;fontFamily=Helvetica;rounded=0;labelBackgroundColor=none;fontColor=#143642;" parent="tEtHllRz7IMj_6NWPrq5-44" vertex="1">
          <mxGeometry y="52" width="160" height="30" as="geometry" />
        </mxCell>
        <mxCell id="tEtHllRz7IMj_6NWPrq5-50" value="+ questionC: String" style="text;strokeColor=none;fillColor=none;align=left;verticalAlign=middle;spacingLeft=4;spacingRight=4;overflow=hidden;points=[[0,0.5],[1,0.5]];portConstraint=eastwest;rotatable=0;whiteSpace=wrap;html=1;fontSize=11;fontFamily=Helvetica;rounded=0;labelBackgroundColor=none;fontColor=#143642;" parent="tEtHllRz7IMj_6NWPrq5-44" vertex="1">
          <mxGeometry y="82" width="160" height="30" as="geometry" />
        </mxCell>
        <mxCell id="tEtHllRz7IMj_6NWPrq5-51" value="+ questionD: String" style="text;strokeColor=none;fillColor=none;align=left;verticalAlign=middle;spacingLeft=4;spacingRight=4;overflow=hidden;points=[[0,0.5],[1,0.5]];portConstraint=eastwest;rotatable=0;whiteSpace=wrap;html=1;fontSize=11;fontFamily=Helvetica;rounded=0;labelBackgroundColor=none;fontColor=#143642;" parent="tEtHllRz7IMj_6NWPrq5-44" vertex="1">
          <mxGeometry y="112" width="160" height="30" as="geometry" />
        </mxCell>
        <mxCell id="tEtHllRz7IMj_6NWPrq5-46" value="" style="line;strokeWidth=1;fillColor=none;align=left;verticalAlign=middle;spacingTop=-1;spacingLeft=3;spacingRight=3;rotatable=0;labelPosition=right;points=[];portConstraint=eastwest;fontSize=11;rounded=0;labelBackgroundColor=none;strokeColor=#0F8B8D;fontColor=#143642;" parent="tEtHllRz7IMj_6NWPrq5-44" vertex="1">
          <mxGeometry y="142" width="160" height="8" as="geometry" />
        </mxCell>
        <mxCell id="tEtHllRz7IMj_6NWPrq5-47" value="+ updateMQuestionByQid(qid)" style="text;strokeColor=none;fillColor=none;align=left;verticalAlign=top;spacingLeft=4;spacingRight=4;overflow=hidden;rotatable=0;points=[[0,0.5],[1,0.5]];portConstraint=eastwest;whiteSpace=wrap;html=1;fontSize=11;rounded=0;labelBackgroundColor=none;fontColor=#143642;" parent="tEtHllRz7IMj_6NWPrq5-44" vertex="1">
          <mxGeometry y="150" width="160" height="26" as="geometry" />
        </mxCell>
        <mxCell id="tEtHllRz7IMj_6NWPrq5-61" value="FillQuestion" style="swimlane;fontStyle=1;align=center;verticalAlign=top;childLayout=stackLayout;horizontal=1;startSize=26;horizontalStack=0;resizeParent=1;resizeParentMax=0;resizeLast=0;collapsible=1;marginBottom=0;whiteSpace=wrap;html=1;fontSize=11;rounded=0;labelBackgroundColor=none;fillColor=#FAE5C7;strokeColor=#0F8B8D;fontColor=#143642;" parent="WIyWlLk6GJQsqaUBKTNV-1" vertex="1">
          <mxGeometry x="1021.5" y="1131" width="160" height="90" as="geometry" />
        </mxCell>
        <mxCell id="tEtHllRz7IMj_6NWPrq5-63" value="+ questionB: String" style="text;strokeColor=none;fillColor=none;align=left;verticalAlign=middle;spacingLeft=4;spacingRight=4;overflow=hidden;points=[[0,0.5],[1,0.5]];portConstraint=eastwest;rotatable=0;whiteSpace=wrap;html=1;fontSize=11;fontFamily=Helvetica;rounded=0;labelBackgroundColor=none;fontColor=#143642;" parent="tEtHllRz7IMj_6NWPrq5-61" vertex="1">
          <mxGeometry y="26" width="160" height="30" as="geometry" />
        </mxCell>
        <mxCell id="tEtHllRz7IMj_6NWPrq5-64" value="" style="line;strokeWidth=1;fillColor=none;align=left;verticalAlign=middle;spacingTop=-1;spacingLeft=3;spacingRight=3;rotatable=0;labelPosition=right;points=[];portConstraint=eastwest;fontSize=11;rounded=0;labelBackgroundColor=none;strokeColor=#0F8B8D;fontColor=#143642;" parent="tEtHllRz7IMj_6NWPrq5-61" vertex="1">
          <mxGeometry y="56" width="160" height="8" as="geometry" />
        </mxCell>
        <mxCell id="tEtHllRz7IMj_6NWPrq5-65" value="+ updateJQuestionById(id)" style="text;strokeColor=none;fillColor=none;align=left;verticalAlign=top;spacingLeft=4;spacingRight=4;overflow=hidden;rotatable=0;points=[[0,0.5],[1,0.5]];portConstraint=eastwest;whiteSpace=wrap;html=1;fontSize=11;rounded=0;labelBackgroundColor=none;fontColor=#143642;" parent="tEtHllRz7IMj_6NWPrq5-61" vertex="1">
          <mxGeometry y="64" width="160" height="26" as="geometry" />
        </mxCell>
        <mxCell id="tEtHllRz7IMj_6NWPrq5-81" value="1..n" style="text;html=1;strokeColor=none;fillColor=none;align=center;verticalAlign=middle;whiteSpace=wrap;rounded=0;fontSize=11;fontFamily=Helvetica;labelBackgroundColor=none;fontColor=#143642;" parent="WIyWlLk6GJQsqaUBKTNV-1" vertex="1">
          <mxGeometry x="762" y="873" width="60" height="30" as="geometry" />
        </mxCell>
        <mxCell id="tEtHllRz7IMj_6NWPrq5-143" value="component" style="text;html=1;strokeColor=none;fillColor=none;align=center;verticalAlign=middle;whiteSpace=wrap;rounded=0;fontSize=11;fontFamily=Helvetica;labelBackgroundColor=none;fontColor=#143642;" parent="WIyWlLk6GJQsqaUBKTNV-1" vertex="1">
          <mxGeometry x="660" y="875" width="60" height="30" as="geometry" />
        </mxCell>
        <mxCell id="tEtHllRz7IMj_6NWPrq5-144" value="go in" style="text;html=1;strokeColor=none;fillColor=none;align=center;verticalAlign=middle;whiteSpace=wrap;rounded=0;fontSize=11;fontFamily=Helvetica;rotation=0;labelBackgroundColor=none;fontColor=#143642;" parent="WIyWlLk6GJQsqaUBKTNV-1" vertex="1">
          <mxGeometry x="793" y="70" width="60" height="30" as="geometry" />
        </mxCell>
        <mxCell id="tEtHllRz7IMj_6NWPrq5-145" value="release" style="text;html=1;strokeColor=none;fillColor=none;align=center;verticalAlign=middle;whiteSpace=wrap;rounded=0;fontSize=11;fontFamily=Helvetica;rotation=0;labelBackgroundColor=none;fontColor=#143642;" parent="WIyWlLk6GJQsqaUBKTNV-1" vertex="1">
          <mxGeometry x="793" y="418" width="60" height="30" as="geometry" />
        </mxCell>
        <mxCell id="tEtHllRz7IMj_6NWPrq5-148" value="create" style="text;html=1;strokeColor=none;fillColor=none;align=center;verticalAlign=middle;whiteSpace=wrap;rounded=0;fontSize=11;fontFamily=Helvetica;labelBackgroundColor=none;fontColor=#143642;" parent="WIyWlLk6GJQsqaUBKTNV-1" vertex="1">
          <mxGeometry x="443" y="610" width="60" height="30" as="geometry" />
        </mxCell>
        <mxCell id="tEtHllRz7IMj_6NWPrq5-149" value="Score" style="swimlane;fontStyle=1;align=center;verticalAlign=top;childLayout=stackLayout;horizontal=1;startSize=26;horizontalStack=0;resizeParent=1;resizeParentMax=0;resizeLast=0;collapsible=1;marginBottom=0;whiteSpace=wrap;html=1;fontSize=11;rounded=0;labelBackgroundColor=none;fillColor=#FAE5C7;strokeColor=#0F8B8D;fontColor=#143642;" parent="WIyWlLk6GJQsqaUBKTNV-1" vertex="1">
          <mxGeometry x="1125" y="-172" width="160" height="236" as="geometry" />
        </mxCell>
        <mxCell id="tEtHllRz7IMj_6NWPrq5-150" value="+ sid: Long" style="text;strokeColor=none;fillColor=none;align=left;verticalAlign=top;spacingLeft=4;spacingRight=4;overflow=hidden;rotatable=0;points=[[0,0.5],[1,0.5]];portConstraint=eastwest;whiteSpace=wrap;html=1;fontSize=11;rounded=0;labelBackgroundColor=none;fontColor=#143642;" parent="tEtHllRz7IMj_6NWPrq5-149" vertex="1">
          <mxGeometry y="26" width="160" height="26" as="geometry" />
        </mxCell>
        <mxCell id="tEtHllRz7IMj_6NWPrq5-154" value="+ examId: Long" style="text;strokeColor=none;fillColor=none;align=left;verticalAlign=middle;spacingLeft=4;spacingRight=4;overflow=hidden;points=[[0,0.5],[1,0.5]];portConstraint=eastwest;rotatable=0;whiteSpace=wrap;html=1;fontSize=11;fontFamily=Helvetica;rounded=0;labelBackgroundColor=none;fontColor=#143642;" parent="tEtHllRz7IMj_6NWPrq5-149" vertex="1">
          <mxGeometry y="52" width="160" height="30" as="geometry" />
        </mxCell>
        <mxCell id="tEtHllRz7IMj_6NWPrq5-156" value="+ examName: String" style="text;strokeColor=none;fillColor=none;align=left;verticalAlign=middle;spacingLeft=4;spacingRight=4;overflow=hidden;points=[[0,0.5],[1,0.5]];portConstraint=eastwest;rotatable=0;whiteSpace=wrap;html=1;fontSize=11;fontFamily=Helvetica;rounded=0;labelBackgroundColor=none;fontColor=#143642;" parent="tEtHllRz7IMj_6NWPrq5-149" vertex="1">
          <mxGeometry y="82" width="160" height="30" as="geometry" />
        </mxCell>
        <mxCell id="tEtHllRz7IMj_6NWPrq5-157" value="+ userId: Long" style="text;strokeColor=none;fillColor=none;align=left;verticalAlign=middle;spacingLeft=4;spacingRight=4;overflow=hidden;points=[[0,0.5],[1,0.5]];portConstraint=eastwest;rotatable=0;whiteSpace=wrap;html=1;fontSize=11;fontFamily=Helvetica;rounded=0;labelBackgroundColor=none;fontColor=#143642;" parent="tEtHllRz7IMj_6NWPrq5-149" vertex="1">
          <mxGeometry y="112" width="160" height="30" as="geometry" />
        </mxCell>
        <mxCell id="tEtHllRz7IMj_6NWPrq5-155" value="+ resultScore: Integer" style="text;strokeColor=none;fillColor=none;align=left;verticalAlign=middle;spacingLeft=4;spacingRight=4;overflow=hidden;points=[[0,0.5],[1,0.5]];portConstraint=eastwest;rotatable=0;whiteSpace=wrap;html=1;fontSize=11;fontFamily=Helvetica;rounded=0;labelBackgroundColor=none;fontColor=#143642;" parent="tEtHllRz7IMj_6NWPrq5-149" vertex="1">
          <mxGeometry y="142" width="160" height="30" as="geometry" />
        </mxCell>
        <mxCell id="tEtHllRz7IMj_6NWPrq5-160" value="+ submitDate: Date" style="text;strokeColor=none;fillColor=none;align=left;verticalAlign=middle;spacingLeft=4;spacingRight=4;overflow=hidden;points=[[0,0.5],[1,0.5]];portConstraint=eastwest;rotatable=0;whiteSpace=wrap;html=1;fontSize=11;fontFamily=Helvetica;rounded=0;labelBackgroundColor=none;fontColor=#143642;" parent="tEtHllRz7IMj_6NWPrq5-149" vertex="1">
          <mxGeometry y="172" width="160" height="30" as="geometry" />
        </mxCell>
        <mxCell id="tEtHllRz7IMj_6NWPrq5-151" value="" style="line;strokeWidth=1;fillColor=none;align=left;verticalAlign=middle;spacingTop=-1;spacingLeft=3;spacingRight=3;rotatable=0;labelPosition=right;points=[];portConstraint=eastwest;fontSize=11;rounded=0;labelBackgroundColor=none;strokeColor=#0F8B8D;fontColor=#143642;" parent="tEtHllRz7IMj_6NWPrq5-149" vertex="1">
          <mxGeometry y="202" width="160" height="8" as="geometry" />
        </mxCell>
        <mxCell id="tEtHllRz7IMj_6NWPrq5-153" value="+ publishExam(): void" style="text;strokeColor=none;fillColor=none;align=left;verticalAlign=top;spacingLeft=4;spacingRight=4;overflow=hidden;rotatable=0;points=[[0,0.5],[1,0.5]];portConstraint=eastwest;whiteSpace=wrap;html=1;fontSize=11;rounded=0;labelBackgroundColor=none;fontColor=#143642;" parent="tEtHllRz7IMj_6NWPrq5-149" vertex="1">
          <mxGeometry y="210" width="160" height="26" as="geometry" />
        </mxCell>
        <mxCell id="tEtHllRz7IMj_6NWPrq5-163" value="query" style="text;html=1;strokeColor=none;fillColor=none;align=center;verticalAlign=middle;whiteSpace=wrap;rounded=0;fontSize=11;fontFamily=Helvetica;labelBackgroundColor=none;fontColor=#143642;" parent="WIyWlLk6GJQsqaUBKTNV-1" vertex="1">
          <mxGeometry x="822" y="-55" width="60" height="30" as="geometry" />
        </mxCell>
        <mxCell id="tEtHllRz7IMj_6NWPrq5-165" style="edgeStyle=none;shape=connector;rounded=0;orthogonalLoop=1;jettySize=auto;html=1;entryX=0.499;entryY=1.039;entryDx=0;entryDy=0;entryPerimeter=0;labelBackgroundColor=none;align=left;verticalAlign=bottom;fontFamily=Helvetica;fontSize=11;fontColor=default;startArrow=none;startFill=0;endArrow=none;endFill=0;startSize=14;endSize=12;strokeColor=#A8201A;" parent="WIyWlLk6GJQsqaUBKTNV-1" source="tEtHllRz7IMj_6NWPrq5-6" target="tEtHllRz7IMj_6NWPrq5-153" edge="1">
          <mxGeometry relative="1" as="geometry" />
        </mxCell>
        <mxCell id="tEtHllRz7IMj_6NWPrq5-166" value="generate" style="text;html=1;strokeColor=none;fillColor=none;align=center;verticalAlign=middle;whiteSpace=wrap;rounded=0;fontSize=11;fontFamily=Helvetica;labelBackgroundColor=none;fontColor=#143642;" parent="WIyWlLk6GJQsqaUBKTNV-1" vertex="1">
          <mxGeometry x="616" y="339" width="60" height="30" as="geometry" />
        </mxCell>
        <mxCell id="tEtHllRz7IMj_6NWPrq5-170" value="component" style="text;html=1;strokeColor=none;fillColor=none;align=center;verticalAlign=middle;whiteSpace=wrap;rounded=0;fontSize=11;fontFamily=Helvetica;labelBackgroundColor=none;fontColor=#143642;" parent="WIyWlLk6GJQsqaUBKTNV-1" vertex="1">
          <mxGeometry x="625" y="168" width="61" height="30" as="geometry" />
        </mxCell>
        <mxCell id="13WYeAwHN3YP8rNZ9bQY-1" style="edgeStyle=orthogonalEdgeStyle;rounded=0;orthogonalLoop=1;jettySize=auto;html=1;strokeColor=#A8201A;fontColor=#143642;fillColor=#FAE5C7;fontStyle=2;endArrow=none;endFill=0;" edge="1" parent="WIyWlLk6GJQsqaUBKTNV-1" source="CQEFL2mhmP3pLworNLFp-20" target="CQEFL2mhmP3pLworNLFp-8">
          <mxGeometry relative="1" as="geometry">
            <mxPoint x="503" y="249" as="targetPoint" />
          </mxGeometry>
        </mxCell>
        <mxCell id="13WYeAwHN3YP8rNZ9bQY-5" value="Clazz" style="swimlane;fontStyle=1;align=center;verticalAlign=top;childLayout=stackLayout;horizontal=1;startSize=26;horizontalStack=0;resizeParent=1;resizeParentMax=0;resizeLast=0;collapsible=1;marginBottom=0;whiteSpace=wrap;html=1;fontSize=11;rounded=0;labelBackgroundColor=none;fillColor=#FAE5C7;strokeColor=#0F8B8D;fontColor=#143642;" vertex="1" parent="WIyWlLk6GJQsqaUBKTNV-1">
          <mxGeometry x="689" y="213" width="160" height="116" as="geometry" />
        </mxCell>
        <mxCell id="13WYeAwHN3YP8rNZ9bQY-6" value="+ name: String" style="text;strokeColor=none;fillColor=none;align=left;verticalAlign=top;spacingLeft=4;spacingRight=4;overflow=hidden;rotatable=0;points=[[0,0.5],[1,0.5]];portConstraint=eastwest;whiteSpace=wrap;html=1;fontSize=11;rounded=0;labelBackgroundColor=none;fontColor=#143642;" vertex="1" parent="13WYeAwHN3YP8rNZ9bQY-5">
          <mxGeometry y="26" width="160" height="26" as="geometry" />
        </mxCell>
        <mxCell id="13WYeAwHN3YP8rNZ9bQY-7" value="" style="line;strokeWidth=1;fillColor=none;align=left;verticalAlign=middle;spacingTop=-1;spacingLeft=3;spacingRight=3;rotatable=0;labelPosition=right;points=[];portConstraint=eastwest;fontSize=11;rounded=0;labelBackgroundColor=none;strokeColor=#0F8B8D;fontColor=#143642;" vertex="1" parent="13WYeAwHN3YP8rNZ9bQY-5">
          <mxGeometry y="52" width="160" height="8" as="geometry" />
        </mxCell>
        <mxCell id="13WYeAwHN3YP8rNZ9bQY-8" value="+ deleteStudentById(id): void" style="text;strokeColor=none;fillColor=none;align=left;verticalAlign=middle;spacingLeft=4;spacingRight=4;overflow=hidden;points=[[0,0.5],[1,0.5]];portConstraint=eastwest;rotatable=0;whiteSpace=wrap;html=1;fontSize=11;fontFamily=Helvetica;rounded=0;labelBackgroundColor=none;fontColor=#143642;" vertex="1" parent="13WYeAwHN3YP8rNZ9bQY-5">
          <mxGeometry y="60" width="160" height="30" as="geometry" />
        </mxCell>
        <mxCell id="13WYeAwHN3YP8rNZ9bQY-9" value="+ addStudent(student): void" style="text;strokeColor=none;fillColor=none;align=left;verticalAlign=top;spacingLeft=4;spacingRight=4;overflow=hidden;rotatable=0;points=[[0,0.5],[1,0.5]];portConstraint=eastwest;whiteSpace=wrap;html=1;fontSize=11;rounded=0;labelBackgroundColor=none;fontColor=#143642;" vertex="1" parent="13WYeAwHN3YP8rNZ9bQY-5">
          <mxGeometry y="90" width="160" height="26" as="geometry" />
        </mxCell>
        <mxCell id="13WYeAwHN3YP8rNZ9bQY-12" style="edgeStyle=orthogonalEdgeStyle;rounded=0;orthogonalLoop=1;jettySize=auto;html=1;strokeColor=#A8201A;fontColor=#143642;fillColor=#FAE5C7;endArrow=none;endFill=0;" edge="1" parent="WIyWlLk6GJQsqaUBKTNV-1" source="CQEFL2mhmP3pLworNLFp-20" target="tEtHllRz7IMj_6NWPrq5-6">
          <mxGeometry relative="1" as="geometry">
            <Array as="points">
              <mxPoint x="868" y="442" />
              <mxPoint x="868" y="329" />
            </Array>
          </mxGeometry>
        </mxCell>
        <mxCell id="tEtHllRz7IMj_6NWPrq5-52" value="JudgeQuestion" style="swimlane;fontStyle=1;align=center;verticalAlign=top;childLayout=stackLayout;horizontal=1;startSize=26;horizontalStack=0;resizeParent=1;resizeParentMax=0;resizeLast=0;collapsible=1;marginBottom=0;whiteSpace=wrap;html=1;fontSize=11;rounded=0;labelBackgroundColor=none;fillColor=#FAE5C7;strokeColor=#0F8B8D;fontColor=#143642;" parent="WIyWlLk6GJQsqaUBKTNV-1" vertex="1">
          <mxGeometry x="832" y="1135" width="163" height="116" as="geometry" />
        </mxCell>
        <mxCell id="tEtHllRz7IMj_6NWPrq5-53" value="+ questionA: String" style="text;strokeColor=none;fillColor=none;align=left;verticalAlign=top;spacingLeft=4;spacingRight=4;overflow=hidden;rotatable=0;points=[[0,0.5],[1,0.5]];portConstraint=eastwest;whiteSpace=wrap;html=1;fontSize=11;rounded=0;labelBackgroundColor=none;fontColor=#143642;" parent="tEtHllRz7IMj_6NWPrq5-52" vertex="1">
          <mxGeometry y="26" width="163" height="26" as="geometry" />
        </mxCell>
        <mxCell id="tEtHllRz7IMj_6NWPrq5-54" value="+ questionB: String" style="text;strokeColor=none;fillColor=none;align=left;verticalAlign=middle;spacingLeft=4;spacingRight=4;overflow=hidden;points=[[0,0.5],[1,0.5]];portConstraint=eastwest;rotatable=0;whiteSpace=wrap;html=1;fontSize=11;fontFamily=Helvetica;rounded=0;labelBackgroundColor=none;fontColor=#143642;" parent="tEtHllRz7IMj_6NWPrq5-52" vertex="1">
          <mxGeometry y="52" width="163" height="30" as="geometry" />
        </mxCell>
        <mxCell id="tEtHllRz7IMj_6NWPrq5-57" value="" style="line;strokeWidth=1;fillColor=none;align=left;verticalAlign=middle;spacingTop=-1;spacingLeft=3;spacingRight=3;rotatable=0;labelPosition=right;points=[];portConstraint=eastwest;fontSize=11;rounded=0;labelBackgroundColor=none;strokeColor=#0F8B8D;fontColor=#143642;" parent="tEtHllRz7IMj_6NWPrq5-52" vertex="1">
          <mxGeometry y="82" width="163" height="8" as="geometry" />
        </mxCell>
        <mxCell id="tEtHllRz7IMj_6NWPrq5-58" value="+ updateJQuestionByQId(qid)" style="text;strokeColor=none;fillColor=none;align=left;verticalAlign=top;spacingLeft=4;spacingRight=4;overflow=hidden;rotatable=0;points=[[0,0.5],[1,0.5]];portConstraint=eastwest;whiteSpace=wrap;html=1;fontSize=11;rounded=0;labelBackgroundColor=none;fontColor=#143642;" parent="tEtHllRz7IMj_6NWPrq5-52" vertex="1">
          <mxGeometry y="90" width="163" height="26" as="geometry" />
        </mxCell>
        <mxCell id="13WYeAwHN3YP8rNZ9bQY-46" style="edgeStyle=orthogonalEdgeStyle;rounded=0;orthogonalLoop=1;jettySize=auto;html=1;entryX=0.25;entryY=0;entryDx=0;entryDy=0;strokeColor=#A8201A;fontColor=#143642;fillColor=#FAE5C7;endArrow=none;endFill=0;" edge="1" parent="WIyWlLk6GJQsqaUBKTNV-1" source="13WYeAwHN3YP8rNZ9bQY-24" target="CQEFL2mhmP3pLworNLFp-8">
          <mxGeometry relative="1" as="geometry">
            <Array as="points">
              <mxPoint x="1387" y="-371" />
              <mxPoint x="454" y="-371" />
            </Array>
          </mxGeometry>
        </mxCell>
        <mxCell id="13WYeAwHN3YP8rNZ9bQY-24" value="WrongQuestion" style="swimlane;fontStyle=1;align=center;verticalAlign=top;childLayout=stackLayout;horizontal=1;startSize=26;horizontalStack=0;resizeParent=1;resizeParentMax=0;resizeLast=0;collapsible=1;marginBottom=0;whiteSpace=wrap;html=1;fontSize=11;rounded=0;labelBackgroundColor=none;fillColor=#FAE5C7;strokeColor=#0F8B8D;fontColor=#143642;" vertex="1" parent="WIyWlLk6GJQsqaUBKTNV-1">
          <mxGeometry x="1250" y="831" width="239" height="138" as="geometry" />
        </mxCell>
        <mxCell id="13WYeAwHN3YP8rNZ9bQY-25" value="+ wqid: Long" style="text;strokeColor=none;fillColor=none;align=left;verticalAlign=top;spacingLeft=4;spacingRight=4;overflow=hidden;rotatable=0;points=[[0,0.5],[1,0.5]];portConstraint=eastwest;whiteSpace=wrap;html=1;fontSize=11;rounded=0;labelBackgroundColor=none;fontColor=#143642;" vertex="1" parent="13WYeAwHN3YP8rNZ9bQY-24">
          <mxGeometry y="26" width="239" height="26" as="geometry" />
        </mxCell>
        <mxCell id="13WYeAwHN3YP8rNZ9bQY-38" value="+ qid: Long" style="text;strokeColor=none;fillColor=none;align=left;verticalAlign=top;spacingLeft=4;spacingRight=4;overflow=hidden;rotatable=0;points=[[0,0.5],[1,0.5]];portConstraint=eastwest;whiteSpace=wrap;html=1;fontSize=11;rounded=0;labelBackgroundColor=none;fontColor=#143642;" vertex="1" parent="13WYeAwHN3YP8rNZ9bQY-24">
          <mxGeometry y="52" width="239" height="26" as="geometry" />
        </mxCell>
        <mxCell id="13WYeAwHN3YP8rNZ9bQY-36" value="+ userId: Long" style="text;strokeColor=none;fillColor=none;align=left;verticalAlign=top;spacingLeft=4;spacingRight=4;overflow=hidden;rotatable=0;points=[[0,0.5],[1,0.5]];portConstraint=eastwest;whiteSpace=wrap;html=1;fontSize=11;rounded=0;labelBackgroundColor=none;fontColor=#143642;" vertex="1" parent="13WYeAwHN3YP8rNZ9bQY-24">
          <mxGeometry y="78" width="239" height="26" as="geometry" />
        </mxCell>
        <mxCell id="13WYeAwHN3YP8rNZ9bQY-37" value="+ examId: Long" style="text;strokeColor=none;fillColor=none;align=left;verticalAlign=top;spacingLeft=4;spacingRight=4;overflow=hidden;rotatable=0;points=[[0,0.5],[1,0.5]];portConstraint=eastwest;whiteSpace=wrap;html=1;fontSize=11;rounded=0;labelBackgroundColor=none;fontColor=#143642;" vertex="1" parent="13WYeAwHN3YP8rNZ9bQY-24">
          <mxGeometry y="104" width="239" height="26" as="geometry" />
        </mxCell>
        <mxCell id="13WYeAwHN3YP8rNZ9bQY-32" value="" style="line;strokeWidth=1;fillColor=none;align=left;verticalAlign=middle;spacingTop=-1;spacingLeft=3;spacingRight=3;rotatable=0;labelPosition=right;points=[];portConstraint=eastwest;fontSize=11;rounded=0;labelBackgroundColor=none;strokeColor=#0F8B8D;fontColor=#143642;" vertex="1" parent="13WYeAwHN3YP8rNZ9bQY-24">
          <mxGeometry y="130" width="239" height="8" as="geometry" />
        </mxCell>
        <mxCell id="13WYeAwHN3YP8rNZ9bQY-42" value="1" style="text;html=1;strokeColor=none;fillColor=none;align=center;verticalAlign=middle;whiteSpace=wrap;rounded=0;fontColor=#143642;" vertex="1" parent="WIyWlLk6GJQsqaUBKTNV-1">
          <mxGeometry x="1208" y="873" width="60" height="30" as="geometry" />
        </mxCell>
        <mxCell id="13WYeAwHN3YP8rNZ9bQY-45" value="1" style="text;html=1;strokeColor=none;fillColor=none;align=center;verticalAlign=middle;whiteSpace=wrap;rounded=0;fontColor=#143642;" vertex="1" parent="WIyWlLk6GJQsqaUBKTNV-1">
          <mxGeometry x="998" y="875" width="60" height="30" as="geometry" />
        </mxCell>
        <mxCell id="13WYeAwHN3YP8rNZ9bQY-54" value="1" style="text;html=1;strokeColor=none;fillColor=none;align=center;verticalAlign=middle;whiteSpace=wrap;rounded=0;fontSize=11;fontFamily=Helvetica;labelBackgroundColor=none;fontColor=#143642;" vertex="1" parent="WIyWlLk6GJQsqaUBKTNV-1">
          <mxGeometry x="550" y="354" width="60" height="30" as="geometry" />
        </mxCell>
        <mxCell id="13WYeAwHN3YP8rNZ9bQY-55" value="1..n" style="text;html=1;strokeColor=none;fillColor=none;align=center;verticalAlign=middle;whiteSpace=wrap;rounded=0;fontSize=11;fontFamily=Helvetica;labelBackgroundColor=none;fontColor=#143642;" vertex="1" parent="WIyWlLk6GJQsqaUBKTNV-1">
          <mxGeometry x="610" y="285" width="60" height="30" as="geometry" />
        </mxCell>
        <mxCell id="13WYeAwHN3YP8rNZ9bQY-58" value="1" style="text;html=1;strokeColor=none;fillColor=none;align=center;verticalAlign=middle;whiteSpace=wrap;rounded=0;fontSize=11;fontFamily=Helvetica;labelBackgroundColor=none;fontColor=#143642;" vertex="1" parent="WIyWlLk6GJQsqaUBKTNV-1">
          <mxGeometry x="570" y="108" width="60" height="30" as="geometry" />
        </mxCell>
      </root>
    </mxGraphModel>
  </diagram>
</mxfile>
